<svg width="72" height="72" viewBox="0 0 72 72" fill="none" xmlns="http://www.w3.org/2000/svg">
<rect width="72" height="72" fill="black"/>
<path d="M12.54 16.15H9.06V14.5H17.97V16.15H14.49V25H12.54V16.15Z" fill="white"/>
<path d="M28.7634 14.5V25H26.8134V20.5H21.3834V25H19.4334V14.5H21.3834V18.835H26.8134V14.5H28.7634Z" fill="white"/>
<path d="M39.452 23.365V25H31.577V14.5H39.242V16.135H33.527V18.865H38.597V20.47H33.527V23.365H39.452Z" fill="white"/>
<path d="M10.41 30.5H15C16.12 30.5 17.115 30.72 17.985 31.16C18.855 31.59 19.53 32.205 20.01 33.005C20.49 33.795 20.73 34.71 20.73 35.75C20.73 36.79 20.49 37.71 20.01 38.51C19.53 39.3 18.855 39.915 17.985 40.355C17.115 40.785 16.12 41 15 41H10.41V30.5ZM14.91 39.35C15.68 39.35 16.355 39.205 16.935 38.915C17.525 38.615 17.975 38.195 18.285 37.655C18.605 37.105 18.765 36.47 18.765 35.75C18.765 35.03 18.605 34.4 18.285 33.86C17.975 33.31 17.525 32.89 16.935 32.6C16.355 32.3 15.68 32.15 14.91 32.15H12.36V39.35H14.91Z" fill="white"/>
<path d="M29.4661 38.57H24.2161L23.1811 41H21.1711L25.8961 30.5H27.8161L32.5561 41H30.5161L29.4661 38.57ZM28.8211 37.04L26.8411 32.45L24.8761 37.04H28.8211Z" fill="white"/>
<path d="M40.7614 41L38.6164 37.925C38.5264 37.935 38.3914 37.94 38.2114 37.94H35.8414V41H33.8914V30.5H38.2114C39.1214 30.5 39.9114 30.65 40.5814 30.95C41.2614 31.25 41.7814 31.68 42.1414 32.24C42.5014 32.8 42.6814 33.465 42.6814 34.235C42.6814 35.025 42.4864 35.705 42.0964 36.275C41.7164 36.845 41.1664 37.27 40.4464 37.55L42.8614 41H40.7614ZM40.7164 34.235C40.7164 33.565 40.4964 33.05 40.0564 32.69C39.6164 32.33 38.9714 32.15 38.1214 32.15H35.8414V36.335H38.1214C38.9714 36.335 39.6164 36.155 40.0564 35.795C40.4964 35.425 40.7164 34.905 40.7164 34.235Z" fill="white"/>
<path d="M48.4781 36.605L46.8131 38.315V41H44.8631V30.5H46.8131V35.885L52.0031 30.5H54.1931L49.7831 35.195L54.4631 41H52.1831L48.4781 36.605Z" fill="white"/>
<path d="M17.28 57L15.135 53.925C15.045 53.935 14.91 53.94 14.73 53.94H12.36V57H10.41V46.5H14.73C15.64 46.5 16.43 46.65 17.1 46.95C17.78 47.25 18.3 47.68 18.66 48.24C19.02 48.8 19.2 49.465 19.2 50.235C19.2 51.025 19.005 51.705 18.615 52.275C18.235 52.845 17.685 53.27 16.965 53.55L19.38 57H17.28ZM17.235 50.235C17.235 49.565 17.015 49.05 16.575 48.69C16.135 48.33 15.49 48.15 14.64 48.15H12.36V52.335H14.64C15.49 52.335 16.135 52.155 16.575 51.795C17.015 51.425 17.235 50.905 17.235 50.235Z" fill="white"/>
<path d="M26.2867 57.15C25.2167 57.15 24.2517 56.92 23.3917 56.46C22.5317 55.99 21.8567 55.345 21.3667 54.525C20.8767 53.695 20.6317 52.77 20.6317 51.75C20.6317 50.73 20.8767 49.81 21.3667 48.99C21.8567 48.16 22.5317 47.515 23.3917 47.055C24.2517 46.585 25.2167 46.35 26.2867 46.35C27.3567 46.35 28.3217 46.585 29.1817 47.055C30.0417 47.515 30.7167 48.155 31.2067 48.975C31.6967 49.795 31.9417 50.72 31.9417 51.75C31.9417 52.78 31.6967 53.705 31.2067 54.525C30.7167 55.345 30.0417 55.99 29.1817 56.46C28.3217 56.92 27.3567 57.15 26.2867 57.15ZM26.2867 55.44C26.9867 55.44 27.6167 55.285 28.1767 54.975C28.7367 54.655 29.1767 54.215 29.4967 53.655C29.8167 53.085 29.9767 52.45 29.9767 51.75C29.9767 51.05 29.8167 50.42 29.4967 49.86C29.1767 49.29 28.7367 48.85 28.1767 48.54C27.6167 48.22 26.9867 48.06 26.2867 48.06C25.5867 48.06 24.9567 48.22 24.3967 48.54C23.8367 48.85 23.3967 49.29 23.0767 49.86C22.7567 50.42 22.5967 51.05 22.5967 51.75C22.5967 52.45 22.7567 53.085 23.0767 53.655C23.3967 54.215 23.8367 54.655 24.3967 54.975C24.9567 55.285 25.5867 55.44 26.2867 55.44Z" fill="white"/>
<path d="M38.9136 57.15C37.8436 57.15 36.8786 56.92 36.0186 56.46C35.1586 55.99 34.4836 55.345 33.9936 54.525C33.5036 53.695 33.2586 52.77 33.2586 51.75C33.2586 50.73 33.5036 49.81 33.9936 48.99C34.4836 48.16 35.1586 47.515 36.0186 47.055C36.8786 46.585 37.8436 46.35 38.9136 46.35C39.9836 46.35 40.9486 46.585 41.8086 47.055C42.6686 47.515 43.3436 48.155 43.8336 48.975C44.3236 49.795 44.5686 50.72 44.5686 51.75C44.5686 52.78 44.3236 53.705 43.8336 54.525C43.3436 55.345 42.6686 55.99 41.8086 56.46C40.9486 56.92 39.9836 57.15 38.9136 57.15ZM38.9136 55.44C39.6136 55.44 40.2436 55.285 40.8036 54.975C41.3636 54.655 41.8036 54.215 42.1236 53.655C42.4436 53.085 42.6036 52.45 42.6036 51.75C42.6036 51.05 42.4436 50.42 42.1236 49.86C41.8036 49.29 41.3636 48.85 40.8036 48.54C40.2436 48.22 39.6136 48.06 38.9136 48.06C38.2136 48.06 37.5836 48.22 37.0236 48.54C36.4636 48.85 36.0236 49.29 35.7036 49.86C35.3836 50.42 35.2236 51.05 35.2236 51.75C35.2236 52.45 35.3836 53.085 35.7036 53.655C36.0236 54.215 36.4636 54.655 37.0236 54.975C37.5836 55.285 38.2136 55.44 38.9136 55.44Z" fill="white"/>
<path d="M56.2806 57L56.2656 50.04L52.8156 55.8H51.9456L48.4956 50.13V57H46.6356V46.5H48.2406L52.4106 53.46L56.5056 46.5H58.1106L58.1256 57H56.2806Z" fill="white"/>
</svg>
