<svg width="57" height="67" viewBox="0 0 57 67" fill="none" xmlns="http://www.w3.org/2000/svg">
<path d="M55.5 54.5C55.5 57.1831 54.7869 59.0893 53.6086 60.5015C52.4104 61.9376 50.612 63.0054 48.1978 63.7734C43.304 65.3302 36.4269 65.5 28.5 65.5C20.5731 65.5 13.696 65.3302 8.80219 63.7734C6.38799 63.0054 4.58965 61.9376 3.39142 60.5015C2.21308 59.0893 1.5 57.1831 1.5 54.5C1.5 49.1372 4.37787 44.1708 9.25081 40.4947C14.1245 36.818 20.9252 34.5 28.5 34.5C36.0748 34.5 42.8755 36.818 47.7492 40.4947C52.6221 44.1708 55.5 49.1372 55.5 54.5Z" fill="white" stroke="black" stroke-width="3"/>
<circle cx="28.5" cy="14.5" r="13" fill="white" stroke="black" stroke-width="3"/>
</svg>
